<?xml version="1.0" encoding="UTF-8" standalone="no"?>
<!-- Created with Inkscape (http://www.inkscape.org/) -->

<svg
   xmlns:dc="http://purl.org/dc/elements/1.1/"
   xmlns:cc="http://creativecommons.org/ns#"
   xmlns:rdf="http://www.w3.org/1999/02/22-rdf-syntax-ns#"
   xmlns:svg="http://www.w3.org/2000/svg"
   xmlns="http://www.w3.org/2000/svg"
   xmlns:sodipodi="http://sodipodi.sourceforge.net/DTD/sodipodi-0.dtd"
   xmlns:inkscape="http://www.inkscape.org/namespaces/inkscape"
   version="1.0"
   width="1668.157"
   height="1213.7532"
   id="svg1324"
   sodipodi:version="0.32"
   inkscape:version="0.92.2 (5c3e80d, 2017-08-06)"
   sodipodi:docname="MALI empire BLANK.svg"
   inkscape:output_extension="org.inkscape.output.svg.inkscape">
  <metadata
     id="metadata251">
    <rdf:RDF>
      <cc:Work
         rdf:about="">
        <dc:format>image/svg+xml</dc:format>
        <dc:type
           rdf:resource="http://purl.org/dc/dcmitype/StillImage" />
        <dc:title></dc:title>
      </cc:Work>
    </rdf:RDF>
  </metadata>
  <sodipodi:namedview
     inkscape:window-height="1030"
     inkscape:window-width="1920"
     inkscape:pageshadow="2"
     inkscape:pageopacity="0.0"
     guidetolerance="10.0"
     gridtolerance="10.0"
     objecttolerance="10.0"
     borderopacity="1.0"
     bordercolor="#666666"
     pagecolor="#ffffff"
     id="base"
     height="700px"
     width="1000px"
     showguides="true"
     inkscape:guide-bbox="true"
     inkscape:zoom="0.6673515"
     inkscape:cx="556.11403"
     inkscape:cy="606.87659"
     inkscape:window-x="1440"
     inkscape:window-y="0"
     inkscape:current-layer="layer4"
     showgrid="false"
     inkscape:window-maximized="1"
     fit-margin-top="0"
     fit-margin-left="0"
     fit-margin-right="0"
     fit-margin-bottom="0">
    <sodipodi:guide
       orientation="vertical"
       position="-904.66985,-234.38559"
       id="guide3466"
       inkscape:locked="false" />
  </sodipodi:namedview>
  <defs
     id="defs1327">
    <style
       id="style6"
       type="text/css">
   
    .str3 {stroke:#595959;stroke-width:8;stroke-linejoin:round}
    .str1 {stroke:#000000;stroke-width:14}
    .str2 {stroke:#000000;stroke-width:14}
    .str0 {stroke:#000000;stroke-width:14;stroke-linejoin:round}
    .str7 {stroke:#990099;stroke-width:14}
    .str5 {stroke:#99FF99;stroke-width:14}
    .str6 {stroke:#000000;stroke-width:21;stroke-linejoin:round}
    .str4 {stroke:#3300CC;stroke-width:21;stroke-linejoin:round}
    .str8 {stroke:#FF9999;stroke-width:21;stroke-linejoin:round}
    .fil7 {fill:none}
    .fil8 {fill:#00FF00}
    .fil0 {fill:#336699}
    .fil3 {fill:#990000}
    .fil9 {fill:#9966FF}
    .fil5 {fill:#99FFFF}
    .fil4 {fill:#CC3300}
    .fil10 {fill:#FF6600}
    .fil1 {fill:#FF9933}
    .fil2 {fill:#FFFF99}
    .fil6 {fill:#FFFFFF}
   
  </style>
  </defs>
  <g
     inkscape:groupmode="layer"
     id="layer4"
     inkscape:label="Mapa"
     transform="translate(1.330152,1016.0463)">
    <g
       id="g3521"
       transform="matrix(2.7785482,0,0,2.7785482,-10.335192,-1481.9178)">
      <rect
         style="color:#000000;clip-rule:nonzero;display:inline;overflow:visible;visibility:visible;opacity:1;isolation:auto;mix-blend-mode:normal;color-interpolation:sRGB;color-interpolation-filters:linearRGB;solid-color:#000000;solid-opacity:1;fill:#c6ecff;fill-opacity:1;fill-rule:nonzero;stroke:#0978ab;stroke-width:1px;stroke-linecap:butt;stroke-linejoin:miter;stroke-miterlimit:4;stroke-dasharray:none;stroke-dashoffset:0;stroke-opacity:1;marker:none;color-rendering:auto;image-rendering:auto;shape-rendering:auto;text-rendering:auto;enable-background:accumulate"
         id="rect4316"
         width="599.37"
         height="435.82999"
         x="3.7409155"
         y="168.16725" />
      <g
         id="g13856"
         style="opacity:0.7;fill:#00be00;fill-opacity:1;stroke:#8f76ad;stroke-opacity:1" />
      <path
         inkscape:connector-curvature="0"
         class="fil5"
         d="m 566.54374,429.7698 c 2.23004,4.6831 -16.94831,15.38729 -19.17837,0 0,-0.892 -0.223,-2.00703 -0.44599,-2.89904 0,0 0.22299,-33.67364 19.62436,2.89904 z"
         id="Lake Chad"
         style="fill:#c6ecff;fill-opacity:1;fill-rule:evenodd;stroke:#8f76ad;stroke-opacity:1" />
      <path
         inkscape:connector-curvature="0"
         class="fil1 str0"
         d="m 626.08586,593.90089 c 2.67606,7.58214 0.22301,7.13613 -2.89905,13.15725 -1.11503,2.45303 -3.34507,10.92719 -4.01408,13.60324 l -1.56103,8.25116 -6.46713,20.07038 -0.446,16.0563 c -20.29338,13.60325 -24.75346,35.01166 -30.32856,54.85903 -11.59623,2.23004 -16.94832,31.44359 -28.99055,9.81219 -3.56807,7.58213 -10.92721,6.46711 -17.17132,5.7981 l -1.11502,-0.66901 c 1.78403,-3.34506 -3.79107,-5.79812 -5.79811,-7.58215 l -13.38025,10.03519 -0.66901,0.22302 c -2.89907,-6.46713 -6.46713,-12.93425 -10.9272,-19.17837 h 0.669 c 20.73939,-0.66901 -2.89905,-17.61733 7.58215,-24.97648 12.26523,6.24413 14.71826,-17.61732 23.19243,0 8.25115,-1.33802 12.93424,4.23709 18.95535,-2.45303 0.66901,-8.92018 11.1502,-24.75347 -2.23004,-31.6666 -9.14316,-7.35913 -0.89201,-14.94128 5.1291,-21.40841 -3.56807,-9.36617 -9.81218,-7.35913 -16.72532,-4.90608 -8.25115,-4.46009 -3.34506,-8.47417 -4.01407,-14.04927 16.94832,-4.90609 34.11964,6.24412 49.72993,2.45304 l 1.33803,-8.47415 c 6.91313,-2.67605 4.46008,-11.59622 8.25115,-16.50231 10.4812,-5.7981 21.8544,-1.33802 31.8896,-2.45304 z"
         id="Republic of Congo"
         style="fill:#e0e0e0;fill-opacity:1;fill-rule:evenodd;stroke:#8f76ad;stroke-width:1.57226968;stroke-linejoin:round;stroke-opacity:1" />
      <path
         inkscape:connector-curvature="0"
         class="fil2 str0"
         d="m 573.45687,527.66864 0.44601,-0.89201 c -0.22301,0.223 -0.22301,0.66901 -0.44601,0.89201 l -6.02111,10.03519 -5.1291,4.01408 -1.11501,4.90609 -4.23709,6.69013 c 0.223,3.12206 0.66902,6.46712 1.33802,10.03518 0.44601,2.89906 1.11503,5.79811 2.00704,8.69717 0.89203,3.12206 0.44601,8.92016 1.78403,12.26522 1.78403,4.23709 6.46713,3.12206 9.14318,7.13614 1.78404,2.67605 3.79107,4.68309 6.02111,7.13613 2.00703,2.23004 3.34506,7.58214 5.57511,9.58919 l 3.12206,4.68308 c 6.91313,-2.67605 4.46008,-11.59622 8.25115,-16.50231 10.4812,-5.7981 21.8544,-1.33802 31.8896,-2.45304 4.46009,-6.91313 1.56102,-22.07741 16.50231,-22.96944 11.37321,-4.23708 15.61029,9.58918 24.75347,10.7042 11.15021,3.12207 27.65251,5.12911 36.34968,-5.35209 13.82626,1.78403 24.08445,-8.25115 34.11964,-4.68309 6.24411,-19.40137 23.41543,4.68309 32.1126,-4.23709 2.89905,1.11503 7.58214,1.78404 7.58214,0 l -44.82383,-51.51395 c -10.0352,-2.67606 -18.95536,-11.37322 -21.40842,-18.95537 4.4601,-7.13613 -6.91312,-18.50934 -10.70419,-27.2065 -18.95536,-11.15021 -20.7394,20.96239 -38.35672,23.86144 -9.58918,12.48824 -27.87552,2.00704 -33.00463,20.07038 -18.73235,9.14317 -39.02573,12.26523 -55.75104,14.04926 z"
         id="Central African Republic"
         style="fill:#e0e0e0;fill-opacity:1;fill-rule:evenodd;stroke:#8f76ad;stroke-width:1.57226968;stroke-linejoin:round;stroke-opacity:1" />
      <path
         inkscape:connector-curvature="0"
         id="Equatorial Guinea"
         d="m 489.13196,615.33531 c -3.0291,0.11456 -6.10659,0.54034 -9.36801,1.0839 l -1.31617,-0.23226 c -0.669,3.79108 -1.57625,7.59913 -2.24522,11.61323 -0.44603,2.00704 -0.6379,3.79959 -1.0839,5.80662 h 2.24522 24.92976 l 0.69678,-16.4908 c -5.03153,-1.45649 -9.4313,-1.94815 -13.85846,-1.78069 z m -64.49219,27.6395 c -3.04268,1.06877 -2.84742,6.17505 -0.92905,7.66474 0.10398,0.0751 0.27363,0.17903 0.3871,0.23227 0.59958,0.25261 1.35245,0.2339 2.1678,-0.30969 0.2927,-0.18817 0.56465,-0.45346 0.77422,-0.6968 0.0846,-0.10303 0.23871,-0.27656 0.3097,-0.3871 0.16397,-0.26859 0.29635,-0.62916 0.3871,-0.92906 0.39635,-1.40858 0.0273,-3.12439 -0.77422,-4.25819 -0.13131,-0.17919 -0.31208,-0.39352 -0.46453,-0.54195 -0.0344,-0.0321 -0.11953,-0.12444 -0.15484,-0.15484 -0.0537,-0.0443 -0.17657,-0.11481 -0.23226,-0.15485 -0.22535,-0.15434 -0.52095,-0.31067 -0.77422,-0.3871 -0.10639,-0.0289 -0.27673,-0.0642 -0.3871,-0.0774 -0.0667,-0.006 -0.16432,0 -0.23227,0 -0.0331,0.0105 -0.045,-0.0114 -0.0774,0 z"
         style="fill:#e0e0e0;fill-opacity:1;fill-rule:evenodd;stroke:#8f76ad;stroke-width:1.57315838;stroke-linejoin:round;stroke-miterlimit:4;stroke-dasharray:none;stroke-opacity:1" />
      <path
         inkscape:connector-curvature="0"
         class="fil7 str3"
         d="m 1248.9365,720.79027 v 0 l 1.1151,1.11501 z"
         id="path49"
         style="fill:#e0e0e0;fill-opacity:1;fill-rule:evenodd;stroke:#8f76ad;stroke-width:0.89843976;stroke-linejoin:round;stroke-opacity:1" />
      <path
         inkscape:connector-curvature="0"
         class="fil3 str0"
         d="m 534.87715,618.87735 c -10.48119,-1.11502 -26.3145,-9.36618 -31.8896,-1.78403 l -0.669,16.50231 h -24.97648 -2.23005 c -1.33801,7.58213 -2.89904,15.38729 -4.90608,22.74642 -18.06334,13.60326 6.24411,26.98351 10.9272,42.1478 9.14317,5.7981 15.83329,12.48824 21.18541,19.84737 h 0.669 c 20.73939,-0.66901 -2.89905,-17.61733 7.58215,-24.97648 12.26523,6.24413 14.71826,-17.61732 23.19243,0 8.25115,-1.33802 12.93424,4.23709 18.95535,-2.45303 0.66901,-8.92018 11.1502,-24.75347 -2.23004,-31.6666 -9.14316,-7.35913 -0.89201,-14.94128 5.1291,-21.40841 -3.56807,-9.36617 -9.81218,-7.35913 -16.72532,-4.90608 -8.25115,-4.46009 -3.34506,-8.47417 -4.01407,-14.04927 z m -32.11261,100.12889 c 0,0 -0.223,-0.22301 -0.223,-0.44602 0,0.22301 0.223,0.44602 0.223,0.44602 z"
         id="Gabon"
         style="fill:#e0e0e0;fill-opacity:1;fill-rule:evenodd;stroke:#8f76ad;stroke-width:1.57226968;stroke-linejoin:round;stroke-opacity:1" />
      <path
         inkscape:connector-curvature="0"
         id="São Tomé and Príncipe"
         d="m 457.71771,598.36097 c -6.24413,-2.67605 0.66901,-8.25115 3.56806,-8.25115 6.24411,2.45304 -0.44601,7.58213 -3.56806,8.25115 z"
         style="fill:#e0e0e0;fill-opacity:1;fill-rule:evenodd;stroke:#8f76ad;stroke-width:1.57226968;stroke-linejoin:round;stroke-opacity:1" />
      <path
         inkscape:connector-curvature="0"
         class="fil4 str0"
         d="m 478.45708,616.2013 c 0.89203,-3.79107 1.78405,-7.58214 2.67606,-11.1502 2.45306,-13.60326 -10.2582,-16.72531 -15.8333,-27.42952 -2.23004,-2.23004 -4.46008,-3.56806 -6.91312,-4.23708 l 0.223,-0.89202 0.22301,-2.00704 2.89905,-14.94128 16.50231,-17.17131 c 7.13614,-6.02112 12.71124,-1.78404 18.50935,1.11502 3.12205,1.56103 6.24411,2.89905 9.81217,2.45304 l 9.81219,-11.59622 5.5751,-10.48119 0.44602,-6.91314 2.23004,-10.03518 5.7981,-5.12909 5.79811,-10.92722 7.13613,-9.36617 2.89907,-9.58917 18.06333,-15.6103 c 2.45305,5.79811 3.56807,12.04223 2.00704,19.17836 0.89202,2.67605 11.59622,13.38025 0.66901,13.15725 -8.02815,-0.89203 -15.8333,-1.78403 -17.39432,5.79811 7.80514,12.48823 28.32153,23.86145 24.30745,36.34968 l -0.44601,0.89201 -6.02111,10.03519 -5.1291,4.01408 -1.11501,4.90609 -4.23709,6.69013 c 0.223,3.12206 0.66902,6.46712 1.33802,10.03518 0.44601,2.89906 1.11503,5.79811 2.00704,8.69717 0.223,0.446 0.223,1.11502 0.44601,1.78403 0,1.78403 0.22301,3.56807 0.22301,5.5751 0,0 0,0 0,0 0.22301,0.22301 0.22301,0.66901 0.22301,1.11502 0,0 0,0 0,0 0,0 0,0 0,0 0,0.22301 0,0.22301 0,0.22301 0,0 0,0 0,0 0,0 0,0 0,0 0,0.446 0,0.66902 0.223,1.11502 0,0 0,0 0,0 0,0 0,0 0,0.223 0,0 0,0 0,0 0,0 0,0 0,0 0,0.22301 0,0.22301 0,0.44601 0,0 0,0 0,0 0,0.223 0,0.223 0,0.223 0.22301,0 0.22301,0 0.22301,0 0,0.22301 0,0.22301 0,0.44602 0,0 0,0 0,0 0,0 0,0 0,0 0,0 0,0 0,0 0,0 0,0 0,0.223 0,0 0,0 0,0 0,0 0,0 0,0 0,0 0,0 0,0 0.223,0.223 0.223,0.223 0.223,0.223 0,0 0,0.223 0,0.223 0,0 0,0 0,0 0,0 0,0 0,0 0,0 0,0 0,0.22301 0,0 0,0 0,0 0,0 0,0 0,0 0,0 0.22299,0.223 0.22299,0.223 1.78403,4.23709 6.46713,3.12206 9.14318,7.13614 1.78404,2.67605 3.79107,4.68309 6.02111,7.13613 2.00703,2.23004 3.34506,7.58214 5.57511,9.58919 l 3.12206,4.68308 -1.33803,8.47415 c -15.61029,3.79108 -32.78161,-7.35913 -49.72993,-2.45304 -10.48119,-1.11502 -26.3145,-9.36618 -31.8896,-1.78403 -8.47416,-2.45305 -15.16429,-2.00704 -23.19243,-0.66901 z m 96.33782,-88.53266 c 0,0 0,0 -0.223,0 0,0 0,0 0,0 0,0 0,0 -0.223,0 0,0 -0.22302,0 -0.22302,0 0,0 0,0 0,0 -0.223,0 -0.223,0 -0.223,0 -0.22301,0 -0.22301,0 -0.44601,0 m 0.44601,-0.89201 v 0 m 0,0.223 c 0,0 0,0 0,0 0,0 0,0 0,0 0,0 0,0 0,0 z m -0.22301,0 c 0,0 0,0 0,0.223 0,-0.223 0,-0.223 0,-0.223 z m 0,0.223 c 0,0 0,0 0,0"
         id="Cameroon"
         style="fill:#e0e0e0;fill-opacity:1;fill-rule:evenodd;stroke:#8f76ad;stroke-width:1.57226968;stroke-linejoin:round;stroke-opacity:1" />
      <path
         inkscape:connector-curvature="0"
         class="fil3 str0"
         d="m 359.81887,539.48787 2.67604,-8.02816 -2.67604,-6.91312 -1.78404,-6.02112 1.78404,-6.91313 v -7.13613 c 8.69716,-7.80515 11.1502,-15.38729 15.16428,-23.63844 1.11502,-2.23005 2.23004,-4.68309 3.79107,-6.91314 l -4.01407,-26.76049 19.17836,-29.65956 c 16.2793,-8.92016 29.43655,4.46008 42.14778,11.37322 9.58919,-6.46713 23.86145,1.56102 33.89664,6.02109 l 24.08446,-9.14316 27.2065,5.5751 c 8.02816,-0.89201 15.61029,-15.83329 23.19244,-10.70419 l 2.67604,2.67604 c -0.22299,2.00705 -0.22299,3.56808 -0.22299,3.56808 0.22299,0.89201 0.44599,2.00704 0.44599,2.89904 0.89203,6.24413 4.4601,8.02816 8.47418,8.02816 3.34506,4.68308 6.2441,9.58918 8.47415,14.49527 v 0 l -18.06333,15.6103 -2.89907,9.58917 -7.13613,9.36617 -5.79811,10.92722 -5.7981,5.12909 -2.23004,10.03518 -0.44602,6.91314 -5.5751,10.48119 -9.81219,11.59622 c -3.56806,0.44601 -6.69012,-0.89201 -9.81217,-2.45304 -5.79811,-2.89906 -11.37321,-7.13614 -18.50935,-1.11502 l -16.50231,17.17131 -2.89905,14.94128 -0.22301,2.00704 -0.223,0.89202 c -12.71124,-4.01408 -27.65253,10.48119 -42.81681,3.34506 -13.82625,-4.90608 -9.58919,-22.52343 -22.30042,-30.77458 -11.15021,-7.80514 -22.30042,-7.35913 -33.45062,-6.46711 z"
         id="Nigeria"
         style="fill:#e0e0e0;fill-opacity:1;fill-rule:evenodd;stroke:#8f76ad;stroke-width:1.57226968;stroke-linejoin:round;stroke-opacity:1" />
      <path
         inkscape:connector-curvature="0"
         class="fil2 str0"
         d="m 492.72936,138.30334 c -1.78403,-8.92017 -4.23709,-18.73235 -5.1291,-28.99054 -9.36617,-4.9061 -9.81218,-18.063342 -18.95534,-24.307455 V 72.74011 c 15.38727,-12.488234 12.26522,-31.889599 16.27929,-45.046845 l 0.223,-1.784033 c 3.34506,-0.223004 6.24412,-1.11502 9.14318,-3.345063 7.80515,-7.136134 11.15021,-0.446008 16.50231,3.345063 1.33803,1.115021 2.89904,1.338025 4.68309,1.561029 0,0 8.92017,-2.007037 3.56807,5.129096 -1.56104,2.230042 -3.56807,4.460085 -4.01408,7.136134 10.7042,11.150209 2.45304,25.868486 -8.92016,31.44359 0.44599,9.58918 10.25818,10.927204 17.84033,14.495276 l -0.22301,1.561028 c 7.35914,19.624365 -15.83329,17.617335 -20.07038,30.551565 l -0.66901,3.79108 c -0.89201,6.24411 -1.56103,11.1502 -9.58919,16.72531 z"
         id="Tunisia"
         style="fill:#e0e0e0;fill-opacity:1;fill-rule:evenodd;stroke:#8f76ad;stroke-width:1.57226968;stroke-linejoin:round;stroke-opacity:1" />
      <path
         inkscape:connector-curvature="0"
         class="fil1 str0"
         d="m 574.5719,527.66864 v -0.223 l -0.223,0.223 c 0,0 0,0 -0.22302,0 l -0.44601,-0.44601 0.22301,-0.446 c 4.01408,-12.48823 -16.50231,-23.86145 -24.30745,-36.34968 1.56102,-7.58214 9.36617,-6.69014 17.39432,-5.79811 10.92721,0.223 0.22301,-10.4812 -0.66901,-13.15725 1.56103,-7.13613 0.44601,-13.38025 -2.00704,-19.17836 v 0 c -2.00704,-4.90609 -5.12909,-9.36618 -8.25115,-14.04926 6.24411,-2.23004 11.59621,-6.24412 10.48119,-8.47417 -15.38729,-28.99053 -18.73235,-13.82625 -19.40137,-6.2441 0,-0.22302 0,-0.22302 0,-0.22302 l -2.45303,-2.45304 c -0.44601,-0.89203 -0.89203,-1.56103 -0.89203,-2.00704 l -0.669,-8.25116 c 5.12909,-14.04926 18.06334,-32.11259 33.22762,-44.37783 l 2.23004,-47.49989 6.02111,-11.59622 c -16.72531,-14.27226 -8.69717,-29.43654 -15.16428,-44.60083 v -0.66901 l 19.84737,-11.1502 124.43634,67.34725 1.78403,67.12426 -16.05631,4.68309 c 4.9061,9.81217 -12.93425,15.16428 -8.25115,25.86849 -4.6831,3.79107 -2.89906,11.15021 -4.23708,17.17131 -2.67604,1.78404 2.00704,6.46713 2.00704,6.46713 4.23708,2.67606 4.46008,10.03519 3.34506,13.82626 -0.446,6.91312 13.38025,8.92017 8.25116,16.50231 -18.95536,-11.15021 -20.7394,20.96239 -38.35672,23.86144 -9.58918,12.48824 -27.87552,2.00704 -33.00463,20.07038 -18.28634,8.92017 -38.1337,12.26523 -54.63601,14.04926 0,0 0,0 0,0 0,0 0,0 0,0 z M 547.14237,424.86371 v 0 c 0,0 0,0 0,-0.223 0,0.223 0,0.223 0,0.223 z m 0,-0.223 c 0,0 0,0 0,0 0,0 0,0 0,0 z m 0,-0.89202 c 0,0 0,-0.22299 0,-0.22299 0,0 0,0.22299 0,0.22299 z m 26.5375,103.47394 v 0 c 0,0 0,0 0,0 z m 0.22301,-0.446 v 0 m 0.66902,0.89201 c 0,0 0,0 0,0 0,0 0,0 0,0 z m -0.89203,-0.66901 c 0,0 0,0 0,0.223 0,-0.223 0,-0.223 0,-0.223 z m 0.66903,0.66901 v 0 0 0 h -0.22302 c 0.22302,0 0.22302,0 0.22302,0 z m -0.44602,-0.66901 c 0,0 0,0 0,0 0,0 0,0 0,0 0,0 0,0 0,0 z"
         id="Chad"
         style="fill:#e0e0e0;fill-opacity:1;fill-rule:evenodd;stroke:#8f76ad;stroke-width:1.57226968;stroke-linejoin:round;stroke-opacity:1" />
      <path
         inkscape:connector-curvature="0"
         class="fil4 str0"
         d="m 713.72651,318.04471 -124.43634,-67.34725 -28.99055,16.05629 c -8.47415,-10.48119 -23.63844,-10.7042 -37.2417,-16.05629 -0.22299,-12.04224 -16.9483,-18.28636 -24.75346,-18.95537 -1.33803,-10.03519 -18.28634,-19.84737 -7.58213,-28.99055 1.33802,-10.03518 7.80514,-19.62436 2.67603,-31.44359 3.79108,-9.36617 2.00705,-20.51638 -0.669,-33.00461 h 0.669 c 8.02816,-5.57511 8.69718,-10.4812 9.58919,-16.72531 l 0.66901,-3.79108 c 4.23709,-12.93423 27.42952,-10.9272 20.07038,-30.551565 l 0.22301,-1.561028 c 0,0 0,0 -0.22301,0 v 0 c 2.89905,1.338024 5.57511,2.899052 7.13614,5.575101 11.59622,5.575101 25.19947,3.345072 37.4647,6.913132 4.90609,1.33803 9.58918,3.79107 13.82626,7.80513 1.33802,21.18541 26.76049,14.27229 39.02573,20.7394 7.58215,0.44601 12.04223,13.15725 21.6314,10.7042 18.73235,-9.58918 2.45306,-20.73938 10.70421,-30.77457 4.46008,-3.34506 8.47416,-6.24413 12.26523,-8.47416 6.91312,-3.791076 13.38024,-5.1291 21.6314,-2.230047 0.66901,0.892016 1.33803,1.561028 2.00704,2.230047 10.25818,9.36617 25.42247,8.02815 37.4647,16.50231 h -0.22301 l -1.33802,1.56103 -4.01407,6.24412 c 7.13613,10.7042 -8.02816,20.29337 2.45304,30.55156 l 4.46008,125.77436 1.33803,33.67363 c -6.91313,3.79108 -12.71124,-3.56807 -15.83329,5.57511 z"
         id="Lybia"
         style="fill:#e0e0e0;fill-opacity:1;fill-rule:evenodd;stroke:#8f76ad;stroke-width:1.57226968;stroke-linejoin:round;stroke-opacity:1" />
      <path
         inkscape:connector-curvature="0"
         class="fil3 str0"
         d="m 523.05792,250.69746 c -32.11259,22.30041 -60.65713,31.44358 -90.9857,59.0961 -13.82625,12.48823 -38.13371,10.03518 -52.18298,11.37322 -0.44601,-18.95537 -28.99055,-15.83331 -32.55861,-34.78866 L 213.08211,168.1859 l -0.223,-0.44601 1.33803,-8.02816 4.68308,-18.28633 c 10.7042,-3.56808 22.52343,-13.82626 35.01166,-10.7042 4.01407,-6.24413 10.9272,-1.56103 15.8333,-4.23708 8.25115,-13.82626 24.08445,-7.58215 29.65956,-23.19243 8.02814,-7.805155 23.19243,-12.265236 35.45766,-8.920176 6.69012,-7.582137 -5.1291,-15.610291 -2.23004,-22.52342 L 332.38935,42.85755 c 4.01408,0.223004 6.91313,-0.669013 6.91313,-0.669013 11.1502,-4.237079 23.86145,-8.920167 35.68067,-13.157246 20.51638,-4.014075 41.70179,-11.819222 60.43414,-4.460085 5.5751,3.122059 10.9272,-0.223004 10.9272,-0.223004 13.15725,-6.021112 27.20651,2.676051 39.02574,1.56103 0,0 -0.22302,0 -0.22302,0 l -0.223,1.784033 c -4.01407,13.157246 -0.89202,32.558611 -16.27929,45.046845 v 12.265235 c 9.14316,6.244113 9.58917,19.401355 18.95534,24.307455 0.89201,10.25819 3.34507,20.07037 5.1291,28.99054 2.67605,12.48823 4.46008,23.63844 0.669,33.00461 5.12911,11.81923 -1.33801,21.40841 -2.67603,31.44359 -10.70421,9.14318 6.2441,18.95536 7.58213,28.99055 7.80516,0.66901 24.53047,6.91313 24.75346,18.95537 z M 328.15227,41.965533 c 0,0 0,0 0,0"
         id="Algeria"
         style="fill:#e0e0e0;fill-opacity:1;fill-rule:evenodd;stroke:#8f76ad;stroke-width:1.57226968;stroke-linejoin:round;stroke-opacity:1" />
      <path
         inkscape:connector-curvature="0"
         class="fil1 str0"
         d="m 214.19714,159.71173 -5.35211,30.9976 -47.9459,-3.79107 -8.92016,44.82383 c -6.46712,-0.89201 -15.6103,2.45305 -18.95536,10.03518 -0.66901,7.58215 -1.11502,20.5164 -11.15021,22.52343 l -51.290959,-7.80515 -0.669013,-2.00703 c 0.669013,-0.89202 1.115021,-1.56103 1.115021,-1.56103 11.819221,-17.39432 19.178361,-37.2417 36.349681,-50.84495 11.37322,-3.12206 11.15021,-18.95536 18.95536,-28.32153 2.45305,-2.89907 5.5751,-5.12909 10.03518,-6.24413 4.68309,-6.91312 10.03519,-11.81921 15.8333,-15.16428 h 2.23005 z"
         id="Western Sahara"
         style="fill:#e0e0e0;fill-opacity:1;fill-rule:evenodd;stroke:#8f76ad;stroke-width:1.57226968;stroke-linejoin:round;stroke-opacity:1" />
      <path
         inkscape:connector-curvature="0"
         class="fil2 str0"
         d="m 332.38935,42.85755 0.22301,28.990544 c -2.89906,6.913129 8.92016,14.941283 2.23004,22.52342 -12.26523,-3.34506 -27.42952,1.115021 -35.45766,8.920176 -5.57511,15.61028 -21.40841,9.36617 -29.65956,23.19243 -4.9061,2.67605 -11.81923,-2.00705 -15.8333,4.23708 -12.48823,-3.12206 -24.30746,7.13612 -35.01166,10.7042 l -4.68308,18.28633 -59.76512,-7.35913 h -2.23005 c 9.81219,-6.02111 20.51639,-8.47416 31.44359,-11.37321 15.6103,-8.02815 27.20651,-25.86849 28.76755,-42.8168 0.22299,-0.669019 0.22299,-1.338031 0.22299,-2.230047 9.58918,-22.746425 30.10557,-31.666592 50.39895,-41.255771 10.70421,-6.244118 12.71124,-25.645481 25.86849,-24.976469 10.03519,11.596218 25.64548,9.366176 38.80273,12.26523 1.78404,0.446009 3.34506,0.669013 4.68308,0.892017 z M 151.53296,152.79861 c 0,-0.22301 0.223,-0.22301 0.223,-0.22301 0,0 -0.223,0 -0.223,0.22301 z"
         id="Morocco"
         style="fill:#e0e0e0;fill-opacity:1;fill-rule:evenodd;stroke:#8f76ad;stroke-width:1.5731585;stroke-linejoin:round;stroke-miterlimit:4;stroke-dasharray:none;stroke-opacity:1" />
      <path
         inkscape:connector-curvature="0"
         class="fil1 str0"
         d="m 113.84526,87.904397 c -1.11503,2.899053 -5.57511,2.230041 -5.79811,-0.669012 -0.44601,-2.23004 2.23004,-4.014084 4.01407,-5.1291 4.23708,0 8.69716,5.1291 1.78404,5.798112 z"
         id="Madeira Island (Portugal)"
         style="fill:#e0e0e0;fill-opacity:1;fill-rule:evenodd;stroke:#8f76ad;stroke-width:1.57226968;stroke-linejoin:round;stroke-opacity:1" />
      <path
         inkscape:connector-curvature="0"
         id="Canary Islands (Spain)"
         d="m 101.3272,131.60519 c -1.56101,1.11502 -4.39455,2.65678 -3.9485,5.10982 0.0087,0.11325 -0.02118,0.28076 0,0.38712 0.01886,0.084 0.05121,0.23024 0.07742,0.30968 0.06296,0.1762 0.21393,0.38941 0.30969,0.54195 0.02202,0.0333 0.05396,0.12275 0.07742,0.15485 0.01207,0.0157 0.06501,0.062 0.07742,0.0774 0.10198,0.12112 0.26591,0.28586 0.38711,0.3871 0.90954,0.72803 2.32007,0.89319 3.40655,0.38712 0.0365,-0.018 0.11904,-0.0579 0.15484,-0.0774 0.0354,-0.0203 0.12024,-0.0555 0.15485,-0.0774 0.0855,-0.0568 0.22996,-0.16539 0.30968,-0.23227 0.0157,-0.0138 0.062,-0.0632 0.0774,-0.0774 0.0606,-0.0584 0.17617,-0.16722 0.23226,-0.23226 0.1372,-0.16676 0.28424,-0.4102 0.38711,-0.61937 0.0297,-0.0641 0.0513,-0.16433 0.0774,-0.23227 1.51226,-0.14634 2.55169,-0.53366 3.09686,-1.00648 0.0368,-0.0343 0.12227,-0.11942 0.15485,-0.15484 0.0915,-0.1078 0.17684,-0.27123 0.23226,-0.38711 0.0662,-0.15605 0.14706,-0.37623 0.15484,-0.54195 5.5e-4,-0.10413 -0.0572,-0.28092 -0.0774,-0.38711 -0.0242,-0.10647 -0.0341,-0.27995 -0.0774,-0.38711 -0.0469,-0.10716 -0.1679,-0.28062 -0.23226,-0.3871 -0.83915,-1.31702 -2.98008,-2.55492 -5.03241,-2.55492 z m 41.03345,1.00648 c -0.0668,0.0205 -0.076,0.12305 -0.15485,0.15485 0.0279,-0.009 0.12244,0.008 0.15485,0 0.0347,-0.007 0.11535,0.005 0.15484,0 0.0839,-0.008 0.20516,0 0.30969,0 0,-0.009 0.001,-0.0696 0,-0.0774 -0.003,-0.006 0.005,-0.0722 0,-0.0774 -0.006,-0.004 -0.0708,0.004 -0.0774,0 -0.009,-0.002 -0.0678,0.001 -0.0774,0 -0.0115,5.7e-4 -0.065,-0.001 -0.0774,0 -0.0134,0.002 -0.0632,-0.003 -0.0774,0 -0.0301,0.007 -0.12145,-0.0102 -0.15484,0 z m -0.15485,0.15485 c -2.10839,0.85063 -8.31049,5.59684 -4.95498,8.20668 l 4.25819,-1.0839 c 1.78578,-1.00003 2.21297,-2.15243 2.09038,-3.17429 -0.18943,-1.29155 -1.23939,-2.526 -1.54843,-3.2517 -0.005,-0.0136 -0.0726,-0.0641 -0.0774,-0.0774 -0.004,-0.0129 0.004,-0.0648 0,-0.0774 -0.003,-0.0122 0.002,-0.0655 0,-0.0774 -0.002,-0.0115 7.9e-4,-0.0663 0,-0.0774 7.4e-4,-0.0104 -0.002,-0.0674 0,-0.0774 0.002,-0.01 -0.003,-0.0682 0,-0.0774 0.01,-0.0169 0.0639,-0.0621 0.0774,-0.0774 0.009,-0.007 0.0677,-0.071 0.0774,-0.0774 0.0236,-0.0111 0.0495,-0.0681 0.0774,-0.0774 z m -22.14257,3.56139 c -1.78404,1.11502 -4.62682,2.87979 -4.18077,5.10982 0.007,0.0453 -0.009,0.11064 0,0.15485 0.0443,0.19644 0.15267,0.44562 0.23227,0.61937 0.0277,0.0571 0.0462,0.17779 0.0774,0.23227 0.0538,0.0893 0.16968,0.22768 0.23226,0.30968 0.0128,0.0161 0.0643,0.0616 0.0774,0.0774 0.91627,1.05475 2.58432,1.42318 3.79365,0.92906 0.0352,-0.0153 0.12043,-0.0607 0.15485,-0.0774 0.034,-0.0175 0.12172,-0.0584 0.15484,-0.0774 0.0326,-0.0198 0.12316,-0.0561 0.15484,-0.0774 0.0156,-0.011 0.0621,-0.066 0.0774,-0.0774 0.18089,-0.14156 0.40609,-0.34421 0.54196,-0.54195 0.0219,-0.0338 0.057,-0.1195 0.0774,-0.15485 0.0689,-0.12652 0.18348,-0.31818 0.23226,-0.46453 1.51226,-0.19513 2.47192,-0.58131 3.01944,-1.0839 0.22184,-0.21854 0.3858,-0.5262 0.46453,-0.77422 0.0226,-0.0832 0.0691,-0.22444 0.0774,-0.30968 0.007,-0.12847 0.0224,-0.33351 0,-0.46454 -0.0226,-0.10937 -0.11342,-0.27741 -0.15485,-0.3871 -0.054,-0.13154 -0.15383,-0.33462 -0.23226,-0.46453 -0.13711,-0.21575 -0.34717,-0.49364 -0.54195,-0.69679 -0.99962,-1.00701 -2.69019,-1.7807 -4.25819,-1.7807 z"
         style="fill:#e0e0e0;fill-opacity:1;fill-rule:evenodd;stroke:#8f76ad;stroke-width:1.96644795;stroke-miterlimit:4;stroke-dasharray:none;stroke-opacity:1" />
      <path
         inkscape:connector-curvature="0"
         class="fil1 str0"
         d="m 374.76015,447.16414 c -3.12206,-6.91314 -10.70421,-8.25116 -14.94128,-7.58215 -6.24412,18.28634 -23.19244,7.58215 -28.99054,27.65252 8.25114,12.48823 8.92016,24.97647 11.81921,39.69475 l -2.45304,32.11259 v 1.56104 c 0.44601,0 1.11502,-0.22301 1.56103,-0.22301 6.02112,0.22301 12.04222,-0.446 18.06334,-0.89201 v 0 l 2.67604,-8.02816 -2.67604,-6.91312 -1.78404,-6.02112 1.78404,-6.91313 v -7.13613 c 8.69716,-7.80515 11.1502,-15.38729 15.16428,-23.63844 1.11502,-2.23005 2.23004,-4.68309 3.79107,-6.91314 z m -14.94128,92.32373 c 0,0 0,0 0.223,0 v 0 c -0.223,0 -0.223,0 -0.223,0 z"
         id="Benin"
         style="fill:#e0e0e0;fill-opacity:1;fill-rule:evenodd;stroke:#8f76ad;stroke-width:1.57226968;stroke-linejoin:round;stroke-opacity:1" />
      <path
         inkscape:connector-curvature="0"
         class="fil2 str0"
         d="m 330.15931,541.94091 -5.1291,-6.02112 -3.12205,-57.98108 c -1.78404,-6.46712 -11.37322,-13.82625 -6.02111,-18.95536 6.24411,1.78404 13.60326,-2.45304 16.72531,3.12207 l 0.22301,0.223 c -0.89203,1.33802 -1.56103,2.89905 -2.00704,4.90609 8.25114,12.48823 8.92016,24.97647 11.81921,39.69475 l -2.45304,32.11259 v 1.56104 c -3.12207,0.44601 -6.46713,1.33802 -9.81219,2.45304 z m 20.51638,-1.78403 v 0 c -1.56103,0.223 -3.12206,0.223 -4.68307,0.223 1.56101,0 3.12204,0 4.68307,-0.223 z m -5.3521,0.223 c -0.44601,0 -0.892,0 -1.33802,0 0.44602,0 0.89201,0 1.33802,0 z m -1.33802,0 c 0,0 -0.22301,0 -0.22301,0 0,0 0,0 0,0 -0.223,0 -0.223,0 -0.223,0 0,0 0,0 0,0 -0.223,0 -0.223,0 -0.223,0 0,0 0,0 -0.22301,0 0,0 0,0 0,0 0,0 0,0 0,0 -0.223,0 -0.223,0 -0.223,0 0,0 0,0 0,0 0,0 0,0 -0.22301,0 0,0 0,0 0,0 0,0 0,0 0,0 -0.223,0 -0.223,0 -0.223,0"
         id="Togo"
         style="fill:#e0e0e0;fill-opacity:1;fill-rule:evenodd;stroke:#8f76ad;stroke-width:1.57226968;stroke-linejoin:round;stroke-opacity:1" />
      <path
         inkscape:connector-curvature="0"
         class="fil2 str0"
         d="m 382.34228,383.38494 c 10.2582,-16.94832 10.70421,-40.14075 11.59623,-61.10315 l 0.223,-1.78403 c 12.93425,-0.44601 28.09853,-1.78404 37.91071,-10.7042 30.32857,-27.65252 58.87311,-36.79569 90.9857,-59.0961 13.60326,5.35209 28.76755,5.5751 37.2417,16.05629 l 9.14318,-4.90609 v 0.66901 c 6.46711,15.16429 -1.56103,30.32857 15.16428,44.60083 l -6.02111,11.59622 -2.23004,47.49989 c -15.16428,12.26524 -28.09853,30.32857 -33.22762,44.37783 l 0.669,8.25116 c 0,0.44601 0.44602,1.11501 0.89203,2.00704 l -0.22301,-0.223 c -7.58215,-5.1291 -15.16428,9.81218 -23.19244,10.70419 l -27.2065,-5.5751 -24.08446,9.14316 c -10.03519,-4.46007 -24.30745,-12.48822 -33.89664,-6.02109 -12.71123,-6.91314 -25.86848,-20.29338 -42.14778,-11.37322 l -19.17836,29.65956 c -3.12206,-6.91314 -10.70421,-8.25116 -14.94128,-7.58215 -0.44601,1.56103 -1.11502,2.67605 -1.56103,3.79107 l -0.89202,-2.00704 c -2.45304,-5.7981 -7.58214,-9.36617 -11.81922,-8.92016 -6.46713,-12.71124 -24.75346,-25.19948 -21.4084,-40.80976 l 11.81922,-1.78404 c 13.82626,-8.25115 32.78161,3.12205 46.38486,-6.46712 z"
         id="Niger"
         style="fill:#e0e0e0;fill-opacity:1;fill-rule:evenodd;stroke:#8f76ad;stroke-width:1.5731585;stroke-linejoin:round;stroke-miterlimit:4;stroke-dasharray:none;stroke-opacity:1" />
      <path
         inkscape:connector-curvature="0"
         class="fil1 str0"
         d="m 263.92707,556.65919 1.56103,-6.91313 -5.79811,-5.3521 v -10.92721 l 7.13612,-16.05631 5.57512,-6.69012 1.33803,-8.92017 -5.79811,-18.95534 c 7.35913,-8.69717 -1.78404,-14.94128 4.90608,-23.86146 h 43.03982 c -5.35211,5.12911 4.23707,12.48824 6.02111,18.95536 l 3.12205,57.98108 5.1291,6.02112 0.223,1.11502 v 0 c -21.40839,7.13613 -45.26985,24.53046 -67.12426,15.16429 z"
         id="Ghana"
         style="fill:#e0e0e0;fill-opacity:1;fill-rule:evenodd;stroke:#8f76ad;stroke-width:1.57226968;stroke-linejoin:round;stroke-opacity:1" />
      <path
         inkscape:connector-curvature="0"
         class="fil2 str0"
         d="m 185.87561,567.14038 c 3.12205,-9.81218 3.12205,-28.76753 -10.0352,-36.34968 l -1.33802,-17.84034 c 4.01408,-3.56806 5.79811,-8.02814 4.01408,-11.81921 11.81921,-6.24412 5.5751,-17.61734 2.45304,-27.20652 1.11502,-16.72531 12.71124,-5.57511 24.75346,-10.03518 10.48121,-9.36618 12.48824,14.04926 23.86145,4.68308 10.03519,21.85442 26.5375,-0.22301 38.35673,14.27228 l 5.79811,18.95534 -1.33803,8.92017 -5.57512,6.69012 -7.13612,16.05631 v 10.92721 l 5.79811,5.3521 -1.56103,6.91313 -0.66902,1.56103 c 0,0.223 0,0.223 0.223,0.223 v 0 c -0.892,-0.44601 -1.56102,-0.66902 -2.45304,-1.11502 -2.67605,-2.67605 -7.35913,-0.66901 -7.35913,-0.66901 -11.81922,2.89905 -25.19948,-6.69013 -33.45064,-2.45306 -10.25818,0.89203 -23.19243,12.71125 -34.34263,12.93425 z"
         id="Ivory Coast"
         style="fill:#e0e0e0;fill-opacity:1;fill-rule:evenodd;stroke:#8f76ad;stroke-width:1.57226968;stroke-linejoin:round;stroke-opacity:1" />
      <path
         inkscape:connector-curvature="0"
         class="fil3 str0"
         d="m 324.1382,391.6361 c -22.96943,-2.00705 -44.37784,10.03518 -61.99516,25.86848 -15.16429,-7.58215 -8.92017,13.82625 -20.07037,18.06334 -11.15022,0.66901 -9.36618,14.04925 -8.92018,19.17836 l -3.56807,13.82625 c 10.03519,21.85442 26.5375,-0.22301 38.35673,14.27228 7.35913,-8.69717 -1.78404,-14.94128 4.90608,-23.86146 h 43.03982 c 6.24411,1.78404 13.60326,-2.45304 16.72531,3.12207 l 0.22301,0.223 c 6.46711,-12.26524 18.95535,-7.13615 25.42247,-18.95536 l -0.89202,-2.00704 c -2.45304,-5.7981 -7.58214,-9.36617 -11.81922,-8.92016 -6.46713,-12.71124 -24.75346,-25.19948 -21.4084,-40.80976 z m 34.78865,50.17593 c 0,0 0,0 0,0 0,0 0,0 0,0 z m 0.223,-0.44601 c 0,-0.223 0,-0.223 0,-0.223 0,0 0,0 0,0.223 z m 0.22301,-0.89201 c 0.223,0 0.223,0 0.223,-0.22301 0,0.22301 0,0.22301 -0.223,0.22301 z m 0.44601,-0.66902 c 0,0 0,0 0,-0.223 0,0.223 0,0.223 0,0.223 z m -27.42952,23.41544 c -0.22301,0.223 -0.22301,0.44601 -0.44601,0.66902 0.223,-0.22301 0.223,-0.44602 0.44601,-0.66902 z m -0.44601,0.66902 c 0,0.22301 -0.22301,0.44601 -0.22301,0.669 0,-0.22299 0.22301,-0.44599 0.22301,-0.669 z m -0.22301,0.89201 c -0.44599,0.66902 -0.669,1.56103 -0.892,2.45305 0.223,-0.89202 0.44601,-1.78403 0.892,-2.45305 z"
         id="Burkina Faso"
         style="fill:#e0e0e0;fill-opacity:1;fill-rule:evenodd;stroke:#8f76ad;stroke-width:1.57226968;stroke-linejoin:round;stroke-opacity:1" />
      <path
         inkscape:connector-curvature="0"
         class="fil1 str0"
         d="m 123.65743,519.6405 c 9.58918,-1.78404 16.50231,-30.9976 31.44359,-24.30747 6.91314,3.79108 1.33804,8.25115 1.78403,12.26524 -1.78403,10.7042 12.71125,8.69717 17.61734,5.35209 l 1.33802,17.84034 c 13.15725,7.58215 13.15725,26.5375 10.0352,36.34968 -2.00704,0 -3.79108,-0.223 -5.79812,-1.11502 -20.07037,-12.48823 -37.4647,-31.44358 -56.64306,-46.16186 z m 73.8144,44.15482 v 0 c 0,0 -0.22301,0.223 -0.22301,0.223 0,0 0.22301,-0.223 0.22301,-0.223 z"
         id="Liberia"
         style="fill:#e0e0e0;fill-opacity:1;fill-rule:evenodd;stroke:#8f76ad;stroke-width:1.57226968;stroke-linejoin:round;stroke-opacity:1" />
      <path
         inkscape:connector-curvature="0"
         class="fil2 str0"
         d="m 143.72782,496.22505 c -6.02112,-10.92721 -1.33803,-18.95534 -12.48824,-28.99054 l -16.50231,0.66902 -13.60326,10.92719 -1.33802,0.89202 c -2.00704,12.48824 3.79107,24.30745 12.71123,32.33561 3.79108,2.45305 7.35914,5.12909 10.92721,7.80515 l 0.223,-0.223 c 6.91314,-1.33803 12.26524,-16.27931 20.07039,-22.52343 z m -12.48824,29.88256 c 0.223,0.22301 0.223,0.22301 0.44601,0.22301 -0.22301,0 -0.22301,0 -0.44601,-0.22301 z"
         id="Sierra Leone"
         style="fill:#e0e0e0;fill-opacity:1;fill-rule:evenodd;stroke:#8f76ad;stroke-width:1.57226968;stroke-linejoin:round;stroke-opacity:1" />
      <path
         inkscape:connector-curvature="0"
         class="fil3 str0"
         d="m 75.711538,441.36602 c 4.683088,-7.58213 11.373212,-4.46008 17.171322,-10.03519 0.44601,-4.90609 2.00704,-10.70419 6.91313,-12.48823 12.71123,3.56807 21.1854,6.91313 31.44359,4.23708 l 2.45305,7.58215 c 12.04222,-1.78403 25.19946,4.23706 36.57268,-4.23709 1.11503,3.12206 4.9061,2.45306 6.69013,4.23709 1.78403,2.00704 1.78403,6.46712 2.89905,9.58917 1.78403,5.12911 -0.66902,10.92721 1.33802,16.0563 1.11503,2.67605 2.45305,5.3521 4.01408,8.25115 v 0.22301 c -2.23004,1.11503 -3.79107,3.56806 -4.23708,9.14317 3.12206,9.58918 9.36617,20.9624 -2.45304,27.20652 1.78403,3.79107 0,8.25115 -4.01408,11.81921 -4.90609,3.34508 -19.40137,5.35211 -17.61734,-5.35209 -0.44599,-4.01409 5.12911,-8.47416 -1.78403,-12.26524 -4.46007,-2.00703 -8.02814,-0.89201 -11.3732,1.78404 v -0.89202 c -6.02112,-10.92721 -1.33803,-18.95534 -12.48824,-28.99054 l -16.50231,0.66902 -13.60326,10.92719 -1.33802,0.89202 v 0 c 0,-0.446 0.223,-0.89202 0.223,-1.56103 -2.23004,-3.56806 -2.23004,-7.58214 -4.68308,-10.9272 -1.78403,-2.67606 -4.23708,-7.13614 -6.02112,-9.58918 -2.45304,-3.34506 -4.68309,-7.13613 -7.359135,-10.70421 -1.784033,-2.23004 -4.014076,-4.01407 -6.244117,-5.5751 z m 67.793272,55.97405 c 0,0 0,0 0,0 0,0 0,0 0,0 z"
         id="Guinea"
         style="fill:#e0e0e0;fill-opacity:1;fill-rule:evenodd;stroke:#8f76ad;stroke-width:1.57226968;stroke-linejoin:round;stroke-opacity:1" />
      <path
         inkscape:connector-curvature="0"
         class="fil2 str0"
         d="m 52.296098,418.8426 c 12.934244,2.23004 31.666592,-7.58214 44.823842,1.11501 l 0.223,0.44602 c -2.89905,2.45305 -4.23707,7.13613 -4.46008,10.9272 -5.79811,5.57511 -12.488234,2.45306 -17.171322,10.03519 -3.122059,-2.45304 -6.244117,-4.68309 -8.697164,-8.02815 -9.589179,-4.23707 -14.049263,-8.92017 -15.833296,-14.04926 z"
         id="Guinea-Bissau"
         style="fill:#e0e0e0;fill-opacity:1;fill-rule:evenodd;stroke:#8f76ad;stroke-width:1.57226968;stroke-linejoin:round;stroke-opacity:1" />
      <path
         inkscape:connector-curvature="0"
         class="fil2 str0"
         d="m 52.073094,394.08913 c 1.115021,-0.223 4.014076,-0.669 8.920167,-0.669 6.91313,0 14.718277,-2.67606 14.718277,-2.67606 0,0 5.129096,-3.34506 15.610292,4.46009 10.25819,7.58214 -2.45305,7.13613 -2.45305,7.13613 L 75.711538,397.4342 c -11.150209,-1.56103 -13.826259,12.93425 -24.307456,4.90609 h -0.223004 c 0.223004,-2.67606 0.669013,-5.35209 0.892016,-8.25116 z"
         id="Gambia"
         style="fill:#e0e0e0;fill-opacity:1;fill-rule:evenodd;stroke:#8f76ad;stroke-width:1.57226968;stroke-linejoin:round;stroke-opacity:1" />
      <path
         inkscape:connector-curvature="0"
         class="fil4 str0"
         d="m 65.453345,344.58221 23.415435,-0.89202 c 19.62437,7.13614 20.9624,24.53046 37.2417,37.91072 l -0.66901,18.28633 c 6.91313,5.1291 11.37321,15.6103 5.79811,23.19244 -10.25819,2.67605 -18.73236,-0.66901 -31.44359,-4.23708 -0.89201,0.44601 -1.56103,0.89202 -2.23005,1.33803 l -0.89201,-0.66901 h -0.223 c -13.15725,-7.80516 -31.443593,1.56102 -44.154832,-0.66902 l -1.11502,0.44601 c -2.007038,-5.12909 -1.115022,-10.92721 0,-16.94832 h 0.223004 c 10.481197,8.02816 13.157247,-6.46712 24.307456,-4.90609 l 13.157242,4.90609 c 0,0 12.71124,0.44601 2.45305,-7.13613 -10.481196,-7.80515 -15.610292,-4.46009 -15.610292,-4.46009 0,0 -7.805147,2.67606 -14.718277,2.67606 -4.906091,0 -7.582142,0.446 -8.697163,0.669 0.446009,-5.5751 0,-11.59621 -3.345062,-17.84033 -4.23708,-2.23004 1.784034,-7.58214 1.784034,-7.58214 6.244116,-7.58215 10.258191,-16.0563 13.380251,-24.53047 z"
         id="Senegal"
         style="fill:#e0e0e0;fill-opacity:1;fill-rule:evenodd;stroke:#8f76ad;stroke-width:1.57226968;stroke-linejoin:round;stroke-opacity:1" />
      <path
         inkscape:connector-curvature="0"
         class="fil1 str0"
         d="m 126.11048,381.60091 c 8.69716,0.446 3.79107,-10.2582 10.92721,-12.48824 3.56806,6.91312 10.70419,10.7042 18.06333,4.23709 l 76.26743,3.56806 5.12911,-11.81922 -2.67606,-12.48824 4.01408,-140.71564 h 24.30746 l 0.44601,-0.223 84.74158,74.7064 c 3.56806,18.95535 32.1126,15.83329 32.55861,34.78866 4.01407,-0.44602 9.14318,-0.44602 14.27227,-0.66902 l -0.223,1.78403 c -0.89202,20.9624 -1.33803,44.15483 -11.59623,61.10315 -13.60325,9.58917 -32.5586,-1.78403 -46.38486,6.46712 l -11.81922,1.78404 c -22.96943,-2.00705 -44.37784,10.03518 -61.99516,25.86848 -15.16429,-7.58215 -8.92017,13.82625 -20.07037,18.06334 -11.15022,0.66901 -9.36618,14.04925 -8.92018,19.17836 l -3.56807,13.82625 c -11.37321,9.36618 -13.38024,-14.04926 -23.86145,-4.68308 -7.80514,2.89904 -15.83329,-0.89202 -20.51638,0.89201 v -0.22301 c -1.56103,-2.89905 -2.89905,-5.5751 -4.01408,-8.25115 -2.00704,-5.12909 0.44601,-10.92719 -1.33802,-16.0563 -1.11502,-3.12205 -1.11502,-7.58213 -2.89905,-9.58917 -1.78403,-1.78403 -5.5751,-1.11503 -6.69013,-4.23709 -11.37322,8.47415 -24.53046,2.45306 -36.57268,4.23709 l -2.45305,-7.58215 c 5.5751,-7.58214 1.11502,-18.06334 -5.79811,-23.19244 z m 105.03497,89.64768 c 0,0.223 0,0.223 0,0.223 0,0 0,0 0,-0.223 z m 0.44601,0.892 c 0,0 0,0.22302 0,0.22302 0,0 0,-0.22302 0,-0.22302 z m 0.44601,0.66902 c 0,0.22301 0,0.22301 0.223,0.22301 -0.223,0 -0.223,0 -0.223,-0.22301 z m 0.44601,0.66902 c 0,0.223 0.22301,0.223 0.22301,0.223 0,0 -0.22301,0 -0.22301,-0.223 z m 0.66901,0.66901 c 0,0.223 0,0.223 0,0.223 0,0 0,0 0,-0.223 z m 0.44601,0.66901 c 0,0 0.223,0.22301 0.223,0.22301 0,0 -0.223,-0.22301 -0.223,-0.22301 z"
         id="Mali"
         style="fill:#e0e0e0;fill-opacity:1;fill-rule:evenodd;stroke:#8f76ad;stroke-width:1.57226968;stroke-linejoin:round;stroke-opacity:1" />
      <path
         inkscape:connector-curvature="0"
         class="fil2 str2"
         d="m 64.115321,343.91319 c 2.230041,-6.24411 4.014075,-12.71123 5.3521,-18.73235 1.561028,-5.5751 2.67605,-10.70419 4.014075,-15.38728 3.345063,-9.58918 -8.028151,-19.62438 3.122058,-29.65956 0.892018,-4.68309 -1.561029,-11.15021 -4.906091,-16.0563 -3.568067,-2.45304 -3.568067,-5.35211 -2.899055,-7.58215 h 1.784033 l 51.290959,7.80515 c 10.03519,-2.00703 10.4812,-14.94128 11.15021,-22.52343 3.34506,-7.58213 12.48824,-10.92719 18.95536,-10.03518 l 8.92016,-44.82383 47.9459,3.79107 4.01408,-22.96944 0.223,0.44601 49.50694,43.48582 -0.44601,0.223 h -24.30746 l -4.01408,140.71564 2.67606,12.48824 -5.12911,11.81922 -76.26743,-3.56806 c -7.35914,6.46711 -14.49527,2.67603 -18.06333,-4.23709 -7.13614,2.23004 -2.23005,12.93424 -10.92721,12.48824 -16.2793,-13.38026 -17.61733,-30.77458 -37.2417,-37.91072 l -23.415435,0.89202 -1.115021,-0.44602 z"
         id="Mauritania"
         style="fill:#e0e0e0;fill-opacity:1;fill-rule:evenodd;stroke:#8f76ad;stroke-width:1.57226968;stroke-opacity:1" />
      <path
         inkscape:connector-curvature="0"
         sodipodi:nodetypes="cc"
         id="path2247"
         d="m 405.78897,569.04028 16.77889,-1.44527"
         style="fill:none;fill-rule:evenodd;stroke:#0978ab;stroke-width:3;stroke-linecap:butt;stroke-linejoin:miter;stroke-miterlimit:4;stroke-dasharray:none;stroke-opacity:1" />
    </g>
    <path
       inkscape:connector-curvature="0"
       style="fill:#e34a33;fill-opacity:1;fill-rule:evenodd;stroke:none;stroke-width:2.77854824px;stroke-linecap:butt;stroke-linejoin:miter;stroke-opacity:1;opacity:0.75"
       d="m 638.65327,-638.13417 c -11.1142,0 -106.97411,44.45677 -131.98104,63.90661 -25.00693,19.44983 -170.88071,5.55709 -201.44474,0 -29.69808,-5.39967 -20.92844,-0.51048 -117.22,-18.06057 -1.57607,5.33751 -2.95221,11.04657 -2.95221,15.10836 0,9.82364 -30.40059,79.58879 -36.29478,93.34185 -5.89419,13.75312 -28.48012,40.28895 -28.48012,40.28895 0,0 0.96535,1.92048 6.85954,7.81467 5.89419,5.89419 7.84702,33.36814 9.81175,48.10361 1.32223,9.91678 -2.61492,28.6096 -5.38344,39.8548 19.44084,-2.46979 64.61309,-6.4651 98.63846,4.16782 44.45677,13.89274 69.29004,40.54947 97.07552,54.44218 27.78549,13.89274 99.02607,94.10431 119.65123,117.82781 26.15784,30.08731 52.79242,22.22838 77.79935,16.67129 25.00694,-5.5571 15.97668,-39.33382 43.76214,-64.34076 27.78548,-25.00693 155.85918,-137.71179 183.64466,-162.71872 27.78548,-25.00694 -10.68004,-53.57389 0.43415,-61.90953 11.11419,-8.33564 73.89202,-24.22547 87.78476,-15.88982 13.89274,8.33564 37.24991,99.24626 62.25684,118.6961 25.00693,19.44984 44.45677,-8.33564 61.12806,-27.78548 16.67129,-19.44984 -11.11419,-83.35644 5.5571,-119.47757 16.67129,-36.12113 58.3495,-80.5779 63.9066,-97.24919 5.5571,-16.67128 -69.20324,-29.86939 -85.8745,-32.64794 -16.67129,-2.77854 -144.74499,7.64101 -161.41628,-0.69463 -16.67129,-8.33565 -75.0208,-19.44984 -75.0208,-19.44984 0,0 -61.12806,0 -72.24225,0 z"
       id="path3606" />
    <path
       inkscape:connector-curvature="0"
       style="fill:none;fill-rule:evenodd;stroke:#0978ab;stroke-width:8.33564472;stroke-linecap:butt;stroke-linejoin:miter;stroke-miterlimit:4;stroke-dasharray:none;stroke-opacity:1"
       d="m 367.67389,-153.99558 4.71038,-12.95356 -4.71038,-37.68317 10.59838,-9.42078 29.43994,-9.42078 16.48638,-9.42078 23.55197,-17.66401 5.88799,-8.24317 30.61755,-20.01916 15.30877,-28.26237 62.41272,-42.39356 25.90716,-2.35518 22.37437,-15.30877 58.87993,-21.19679 h 14.13117 l 29.43997,-37.68315 2.35518,-10.59838 -17.66395,-18.84156 v -10.59838 l 48.28152,-24.72958 27.08476,-24.72955 c 0,0 11.77599,1.17758 17.66398,-1.1776 5.888,-2.35521 36.32063,-6.21889 36.32063,-6.21889 0,0 49.04098,2.73539 48.28152,10.59838 -2.02428,20.95834 19.17249,62.08182 19.17249,62.08182 0,0 14.88543,4.28703 16.063,11.35262 1.17761,7.0656 16.48638,51.81434 21.1968,55.34713 4.71039,3.53278 27.08476,25.90715 27.08476,25.90715 0,0 3.53278,17.66398 11.77598,22.37437 8.24318,4.71042 23.55195,10.59839 23.55195,10.59839 0,0 -4.71039,27.08478 16.48639,49.45912 21.1968,22.37437 107.4388,52.89948 112.1492,63.49786 4.7104,10.59841 0,23.55197 -1.1776,31.79518 -1.1776,8.24317 -2.3552,42.39353 1.1776,51.81431 3.5328,9.4208 35.7225,7.39783 48.2815,12.95359 12.653,5.5973 24.7296,12.95356 37.6832,35.327932 12.9536,22.37437 -10.5984,56.524728 -10.5984,68.300715 0,11.77598712 9.4208,29.43994 7.0656,45.926317 -2.3552,16.486376 -25.4634,49.810893 -31.7952,49.459129 -21.1967,-1.177576 -2.1435,42.545627 -2.1435,42.545627"
       id="path2245"
       sodipodi:nodetypes="cccccccccccccccccccccscscsscscsssssssssc" />
  </g>
</svg>
